<?xml version="1.0" encoding="UTF-8"?>
<svg version="1.1" viewBox="0 0 2048 2048" width="1280" height="1280" xmlns="http://www.w3.org/2000/svg">
<path transform="translate(310,128)" d="m0 0h25l22 3 20 5 21 8 16 8 16 10 14 11 15 14 10 11 13 18 12 22 8 20 7 27v3h202l15 2 15 5 15 8 13 10 8 8 10 14 8 17 4 17 1 13v289l-1 10-6 11-7 7-10 4h-17l-10-5-5-4-6-10-2-7-1-295-2-10-6-10-9-6-10-3h-199l-5 22-7 20-8 16-8 14-8 11-9 11-12 13-11 9-10 8-18 11-16 8-22 8-22 5-13 2-23 1-24-2-24-5-17-5-21-9-16-9-14-10-13-11-11-11-11-14-10-15-9-17-8-21-5-19-4-24-1-24 2-24 5-25 8-24 10-21 11-17 11-14 7-8h2l2-4 11-9 10-8 13-8 15-8 21-8 18-5 23-4zm3 160-10 4-9 8-4 8-2 7v9l3 10 4 6 5 5 8 5 8 2 13-1 10-5 7-7 5-10 1-5v-8l-3-10-6-9-9-6-9-3z" fill="#883DD2"/>
<path transform="translate(1275,1344)" d="m0 0h9l8 2 9 5 7 9 3 7 1 7 1 295 3 9 5 8 7 5 8 3 6 1h196l8-30 9-21 9-17 11-16 13-15 13-13 17-13 17-11 19-9 24-8 24-5 11-1h25l19 2 24 5 21 7 18 8 15 9 14 10 13 12 11 11 10 13 11 18 8 16 7 19 5 19 3 18 1 10v32l-4 26-7 25-8 19-9 17-9 13-11 14-13 13-14 11-15 10-16 8-20 8-23 6-26 4-22 1-23-2-26-6-19-7-16-8-11-6-17-12-12-11-6-5-7-8-8-9-11-16-9-16-8-18-6-20-3-12v-4h-196l-20-2-16-5-15-8-9-7-10-9-10-13-8-15-5-16-2-13v-302l4-11 7-8 8-5zm446 352-10 4-9 8-4 8-2 7v9l3 10 4 6 7 7 9 4 5 1 13-1 10-5 7-7 5-10 1-5v-8l-3-10-6-9-9-6-9-3z" fill="#2161BA"/>
<path transform="translate(763,1344)" d="m0 0h9l11 3 6 4v2h2l7 11 2 10v289l-1 16-5 19-8 16-9 12-8 9-12 9-12 7-18 6-10 2-15 1-193 1-5 21-6 18-9 20-10 17-13 17-11 12-12 11-17 12-18 10-22 9-22 6-26 4h-36l-25-4-22-6-19-8-16-8-14-9-14-11-13-12-7-8-13-17-10-18-7-15-7-21-5-24-2-17v-25l3-22 5-22 7-20 9-19 11-17 9-11 9-10 10-10 17-13 15-9 16-8 15-6 21-6 24-4 12-1h20l26 3 25 6 21 8 19 10 17 12 11 9 15 15 10 13 9 14 11 21 8 22 6 24v2l197-1 12-3 8-6 5-6 3-9 1-7 1-294 4-11 7-8 8-5zm-450 352-10 4-9 8-4 8-2 7v9l3 10 4 6 7 7 9 4 5 1 13-1 10-5 7-7 5-10 1-5v-8l-3-10-6-9-9-6-9-3z" fill="#883DD2"/>
<path transform="translate(1716,129)" d="m0 0h21l26 3 25 6 21 8 16 8 16 10 13 10 13 12 12 13 11 16 9 16 7 15 7 22 5 24 1 7 1 24-2 25-5 24-8 24-9 19-10 16-11 14-13 14-11 9-15 11-16 9-17 8-21 7-24 5-15 2h-35l-30-5-16-5-16-6-21-11-13-9-10-8-12-11-11-12-12-17-9-16-6-12-6-16-7-27v-3l-202 1-10 4-7 6-5 9-2 7-1 292-1 10-6 11-7 7-10 4h-17l-10-5-5-4-6-10-2-7v-304l4-19 6-14 9-14 9-10 7-7 13-9 13-6 13-4 15-2 201-1 4-15 6-20 11-25 11-18 10-13 11-13 8-7 12-10 15-10 23-12 27-9 21-4zm5 159-10 4-9 8-4 8-2 7v9l3 10 4 6 7 7 9 4 5 1 13-1 10-5 7-7 5-10 1-5v-8l-3-10-6-9-9-6-9-3z" fill="#2161BA"/>
<path transform="translate(687,867)" d="m0 0 7 3 25 14 17 10 28 16 27 16 18 10 24 14 28 16 24 14 52 30 28 16 17 10 10 7v351l-5-2-56-32-24-14-52-30-24-14-28-16-24-14-26-15-28-16-22-13-10-9-5-10-1-5-1-23v-203z" fill="#584EC7"/>
<path transform="translate(1018,640)" d="m0 0h11l10 3 25 14 24 14 26 15 24 14 23 13 24 14 26 15 28 16 24 14 52 30 13 8-4 4-286 165-12 7-6-1-24-14-28-16-26-15-24-14-28-16-24-14-28-16-24-14-28-16-24-14-26-15-16-9 2-4 24-13 15-9 130-75 24-14 26-15 28-16 26-15 14-8z" fill="#584EC7"/>
<path transform="translate(1358,867)" d="m0 0 3 1v331l-1 10-6 11-9 8-130 75-24 14-49 28-26 15-24 14-23 13-12 7-1-1v-350l3-3 18-10 22-13 28-16 24-14 78-45 28-16 24-14 52-30 21-12z" fill="#584EC7"/>
<path transform="translate(763,1344)" d="m0 0h9l11 3 6 4v2h2l7 11 2 10v289l-1 16-5 19-8 16-9 12-8 9-12 9-12 7-18 6-10 2-15 1h-192l4-2 27-1 18-2 7-1v-3l-10-2-1-1-8-1-1-5v-2l2-1h9v-2l9-3 12 1 5-1v-2l-3-1-1-2h-8l-6 1-3-3 4-1 1-6 2-2 6-2 7-2 16-2 9-3 4-2v-2l8-1 4-1h-4l-1-1h-10v-1l-37-1h-22l-34-1-1-3 192-1 12-3 8-6 5-6 3-9 1-7 1-294 4-11 7-8 8-5z" fill="#594DC8"/>
<path transform="translate(513,288)" d="m0 0h198l15 2 15 5 15 8 13 10 8 8 10 14 8 17 4 17 1 13v289l-1 10-6 11-7 7-10 4h-17l-10-5-5-4-6-10-2-7-1-295-2-10-6-10-9-6-10-3-187-1-7-1v-1l8-1h18l15-2h8l7-1h17v-2h2v2l5-1v-3h-28l-6-1v-2h-13l-4-6v-1l9-2v-1l18-1 4-1-1-5h-8l-1-7 1-3h5l1 1 1-2-2-1 2-3h8l14-3 7-2 8-1 4-2 5-1 3-1 9-1-22-2v-1l-31-1h-24l-2-1h-32l-3 1-4-2z" fill="#594DC8"/>
<path transform="translate(1275,1344)" d="m0 0h9l8 2 9 5 7 9 3 7 1 7 1 295 3 9 5 8 7 5 8 3 6 1 33 1v1l84 1 8 1v1l-13 2-16 1 2 3-15 1 5 1-4 2h-6v2l-9 1-2 4-3-2-3 1 8 3-3 3-4 1-5 2h-8l-3-1v4l7-1 4 1 4 3 4 2-2 1 6 1v1l-22 3-2 1h-6l-3-1-4 2-2 2h-3l-6 2v2h-2v3h6l6 5v1l-9 2-15 1h-19l-15-3-16-7-14-9-13-12-11-15-8-17-4-16-1-8v-302l4-11 7-8 8-5z" fill="#584EC7"/>
<path transform="translate(1337,288)" d="m0 0 25 1 56 1h4l10 1h11l11 1-2 3-18 1 2 2-16 1-1 4-17 3-3 2h-4v-2l-7 1 3 3 5-1 7 1-2 2-1 6-6-1-1 3 5 2 5 3-2 2h-3l-2 4-6-2-1 1-10 2-4 2h-12l-6 1 2 2 5 1-1 5h-4l1 6 2 1 173 1v1l-198 1-10 4-7 6-5 9-2 7-1 292-1 10-6 11-7 7-10 4h-17l-10-5-5-4-6-10-2-7v-304l4-19 6-14 9-14 9-10 7-7 13-9 13-6 13-4z" fill="#584EC7"/>
<path transform="translate(687,867)" d="m0 0 7 3 25 14 11 7v3l-11-1-5-3-2-2-1-2h-3v-2l-9-2h-5l-3 5 4 16 1 16v17l1 4-2 10-1 11 1 17-1 11-1 32v102l-1 16v24l-1 11v3 7l1 1v9h2l3 12 6 11 8 7 5 5 12 6v2h3v2l4 1 1 3 3-1 7 5 1 2h3v2l4 2 5 4 1 2h2l1-2 1 3 2 2-6-1-28-16-26-15-9-7-6-7-3-7-1-5-1-23v-203z" fill="#8040D0"/>
<path transform="translate(796,1610)" d="m0 0h2l1 7v62l-5 19-2 4-7 2-1 4-4 5-1 7-1 2h-2v2l-3 1-3 3-3-1 1 4-2 1-3-1 1 4-5 1-3 3-4 2-4 6-7 1-2-6-9 2-11 1-5-1 4-3 9-4 4-2 5-1 1-3 5-1 3 1v-5h-3v-3l4-1 1 1 1-2h2l1-4 4-1 2 1 1-4 6-3h2l1-6 6-1 4-8h2l-1-4-1-5 1-7 5-3 4 3 2-10 1-2v-6l3-1 1 1v5l1 1-1-9-4-3v-6l4-2-4-3v-5l1-4-1-5 4-3-3-6 3-1h1z" fill="#873DD2"/>
<path transform="translate(740,1371)" d="m0 0h3v5l-1 3 1 11 1 7v9h-2l2 6v19l-1 5v59l1 9v88l-1 5-1 22h-3l-1-7-1-3v-231z" fill="#883DD2"/>
<path transform="translate(792,633)" d="m0 0 4 2 1 5 2 2v39l-6 11-7 7-10 4h-13l-1-6-3-3 1-3-2-6 3 1 2-4 5-3v-2l2-1-1-1v-6l1-3 2-1 2-9 1-5v-4l4 2v8l-1 2 2 10 10-4v-9l5-2 2-10-5-1z" fill="#873DD2"/>
<path transform="translate(739,394)" d="m0 0 3 3 1 7-1 7v27l1 78 1 9v51l-1 15v22l-1 2v24l-3 3-1-9-1-233z" fill="#883DD2"/>
<path transform="translate(1358,867)" d="m0 0 3 1v331h-1l-1-312-2 8-3-2-1-3-5-2-1-4-2-1-3-3 3-5z" fill="#2162BA"/>
<path transform="translate(765,1050)" d="m0 0 3 1 2 18-1 9 3 2-1 5h-3l-2 3h-3l-3-16-1-4-3-1 1-3h3l3-10z" fill="#893DD3"/>
<path transform="translate(1358,867)" d="m0 0 3 1v13h-2v6l-2 8-3-2-1-3-5-2-1-4-2-1-3-3 3-5z" fill="#2361BA"/>
<path transform="translate(731,814)" d="m0 0h4l1 2 4 2 6 2v2l5 1 2 4h3l3 1 3 3 5 2 4 6-5-1-18-10-18-11z" fill="#823FD1"/>
<path transform="translate(738,682)" d="m0 0 5 1 5 9 6 4v3l4 2-2 1-10-6-6-8z" fill="#7F40D0"/>
<path transform="translate(754,303)" d="m0 0 5 2 11 9 5 5-1 3-6-3v-2l-5-2-1-3-3-1v-3h-2z" fill="#813FD1"/>
<path transform="translate(735,376)" d="m0 0 4 1 3 3v5l-5 1-2-4z" fill="#7F40D0"/>
<path transform="translate(689,347)" d="m0 0h8l7 3v1h-14l-10-1v-1h9z" fill="#893DD3"/>
<path transform="translate(1321,806)" d="m0 0 7 4-4 4-5 1v-2h2l-1-3h2z" fill="#2C5DBC"/>
<path transform="translate(778,1660)" d="m0 0h2l2 5-1 5-5-4z" fill="#893DD3"/>
<path transform="translate(764,832)" d="m0 0 4 2 3 5-5-1-4-2z" fill="#7F40D0"/>
</svg>
