<?xml version="1.0" encoding="UTF-8"?>
<svg version="1.1" viewBox="0 0 2048 2048" width="1280" height="1280" xmlns="http://www.w3.org/2000/svg">
<path transform="translate(1e3 64)" d="m0 0h43l30 2 34 4 33 6 28 7 29 9 25 9 32 14 24 12 24 14 30 20 19 14 17 14 14 12 16 15 20 20 7 8 13 15 11 14 12 16 18 27 9 15 12 22 8 16 9 19 11 28 11 33 7 26 7 34 5 37 2 26v74l-2 69-1 14h17l17 3 16 6 15 9 11 9 7 7 10 14 8 17 4 16 1 13v96l-1 21-4 26-7 25-10 24-9 17-10 15-9 12-12 14-8 8-8 7-14 11-19 12-19 10-5 2-5 30-7 40-7 34-7 29-9 31-9 26-10 23-10 19-12 18-10 14-12 16-12 15-10 13-1 257-1 24-1 10 80 28 80 28 15 6 10 7 6 9 2 6v14l-4 10-7 8-12 6-5 1h-8l-17-5-43-15-39-14-29-10-43-15-6-2-2 6-9 17-12 17-8 10-9 10-15 15-14 11-15 10-18 10-25 11-39 14-30 11-33 12-94 34-28 10-12 2-14-3-49-18-61-22-57-21-50-18-24-10-21-11-16-11-11-9-10-9-16-16-13-17-11-17-8-16v-2l-61 21-48 17-49 17-13 4h-12l-10-4-8-7-6-10-1-4v-14l4-9 6-8 10-6 34-12 111-39 21-7h2l-1-6-1-16-1-269-20-26-13-17-12-17-11-17-10-18-10-23-12-36-8-29-9-40-9-49-5-33v-4l-9-3-20-11-15-10-16-13-15-14-7-8-12-15-10-15-8-14-10-23-6-18-5-22-3-26v-116l3-15 5-14 8-14 8-10 11-11 13-9 14-7 13-4 12-2h19l-1-20-2-72v-62l2-27 4-31 7-36 8-31 12-36 13-32 15-31 13-23 15-24 10-14 14-19 11-13 8-10 11-12 7-7 1-2h2l2-4 6-5 19-19 11-9 8-7 14-11 18-13 21-14 22-13 28-15 29-13 29-11 25-8 27-7 34-7 29-4 21-2zm-4 64-34 3-35 6-30 7-26 8-31 12-24 11-20 10-25 15-12 8-17 12-14 11-28 24-22 22-7 8-11 12-11 14-12 16-14 21-13 22-12 23-10 21-12 31-9 28-9 38-4 23-3 27-1 14v64l3 96 3 72 4 73 5 73 6 68 5 47 8 62 8 48 9 44 8 31 8 25 8 21 8 17 12 19 10 14 14 19 11 14 13 16 11 13 13 15 12 14 15 16 12 13 10 10 7 8 16 16 8 7 8 8 8 7 13 12 11 9 13 11 16 12 18 13 18 11 10 6 3 1h215l7-3 14-8 15-10 18-13 16-13 11-9 15-13 12-11 13-12 41-41 7-8 9-9 7-8 12-14 10-11 9-11 14-17 11-14 10-13 9-12 12-17 11-18 10-21 10-28 10-37 9-41 7-39 8-55 6-52 6-62 4-51 5-82 4-82 3-83 1-38v-69l-2-25-4-29-6-29-7-27-12-35-12-28-14-28-10-17-10-16-11-16-13-17-9-11-10-11-7-8-7-7-3-4h-2l-2-4-8-7-8-8-8-7-17-14-19-14-23-15-17-10-23-12-23-11-28-11-29-9-28-7-33-6-30-3-14-1zm-524 665-10 4-8 7-5 9-2 8v109l3 21 6 21 8 18 8 14 8 11 11 13 15 14 4 2-4-40-5-63-5-76-3-58-1-10-3-3-3-1zm1087 0-5 3-5 92-5 72-5 57-3 26 5-2 9-9 6-5 9-11 8-11 8-14 6-12 6-18 4-18 2-21v-99l-2-10-6-10-7-6-11-4zm-856 714v194l3 22 6 21 8 18 6 11 10 14 11 13 10 10 16 12 15 9 15 7 46 17 58 21 99 36 16 6 5-1 38-14 154-56 24-9 17-8 17-11 10-8 13-12 11-13 10-15 8-16 6-15 5-19 3-26v-188h-3l-7 8-10 10-7 8-18 18-8 7-9 9-8 7-11 10-11 9-10 9-12 9-13 10-17 12-19 12-16 9-12 6-6 2-12 1h-228l-10-2-16-8-15-8-24-16-14-10-13-10-16-13-14-12-10-9-8-7-15-14-47-47z" fill="#00FFC0"/>
<path transform="translate(1882,1664)" d="m0 0h11l10 3 9 7 6 10 2 10v193l-1 10-6 11-7 7-11 4-12 1h-188l-11-2-10-6-6-8-4-10v-12l4-11 7-8 11-6 4-1 165-1 1-165 4-11 8-9 10-5z" fill="#00FFC0"/>
<path transform="translate(154,1664)" d="m0 0h11l10 3 9 7 6 10 2 10v162h163l9 2 8 5 5 5 5 8 2 8v9l-3 9-6 8-7 6-9 3-12 1h-188l-11-2-8-5-5-5-5-8-2-8v-202l4-11 8-9 10-5z" fill="#00FFC0"/>
<path transform="translate(1690,128)" d="m0 0h201l9 2 8 5 5 5 5 8 2 10v193l-1 10-6 11-7 7-10 4h-17l-10-5-5-4-6-10-2-7v-165h-161l-11-2-10-6-6-8-4-10v-12l4-11 7-8 11-6z" fill="#00FFC0"/>
<path transform="translate(154,128)" d="m0 0h201l9 2 8 5 5 5 5 8 2 8v9l-3 9-6 8-7 6-9 3-12 1h-155v159l-1 10-6 11-7 7-10 4h-17l-10-5-5-4-6-10-2-7v-203l4-11 7-8 11-6z" fill="#00FFC0"/>
</svg>
