<?xml version="1.0" encoding="UTF-8"?>
<svg version="1.1" viewBox="0 0 2048 2048" width="1280" height="1280" xmlns="http://www.w3.org/2000/svg">
<path transform="translate(498,192)" d="m0 0h1049l28 2 26 4 28 7 26 9 28 13 18 10 18 12 12 9 11 9 14 12 16 16 9 11 10 12 12 17 11 18 14 27 11 28 7 23 6 29 3 24 1 18v1051l-1 19-5 30-6 24-9 27-10 23-12 22-10 16-13 18-11 13-7 8-2 3h-2l-2 4-5 5h-2l-1 3-8 7-13 11-13 10-15 10-22 13-25 12-24 9-24 7-24 5-21 3-18 1h-1052l-22-1-27-4-32-8-20-7-21-9-16-8-18-10-16-11-12-9-11-9-12-11-8-7-13-14-9-11-13-17-13-20-12-22-10-22-8-22-7-26-4-21-3-23v-1072l3-28 5-26 8-28 10-26 11-23 10-17 10-15 11-15 12-14 9-10 17-17 11-9 17-13 18-12 21-12 23-11 24-9 22-6 24-5 22-3z" fill="#408AEF"/>
<path transform="translate(689,949)" d="m0 0h27l22 3 24 6 21 8 23 12 14 10 3 2v2l4 2 20 18 11 11 7 8 244 244 10 7 13 6 12 3h18l13-4 11-6 13-10 144-144 11-9 15-11 22-12 17-7 17-5 19-4 14-2h27l25 4 23 6 20 8 19 10 12 8 17 14 247 247 4 5 4 2v172l-1 19-5 30-6 24-9 27-10 23-12 22-10 16-13 18-11 13-7 8-2 3h-2l-2 4-5 5h-2l-1 3-8 7-13 11-13 10-15 10-22 13-25 12-24 9-24 7-24 5-21 3-18 1h-1052l-22-1-27-4-32-8-20-7-21-9-16-8-18-10-16-11-12-9-11-9-12-11-8-7-13-14-9-11-13-17-13-20-12-22-10-22-8-22-7-26-4-21-3-23v-183h2l2-4 8-7 370-370 8-7 16-12 21-12 21-9 21-6 15-3z" fill="#40D58E"/>
<path transform="translate(192,510)" d="m0 0h1l1 517 1-20v-14l1-5-1-2 1-6v-46l1-2v-8l-1-4 1-25v-34l1-32v-15l2-6-2-1 3-19h1l3-24 5-1 5 10v3h2l5 5 3 5 10 6 6 11 4 4 1 4 8 7 5 5 3 1 5 5 6 2 4 2 1 4 10 2 9-4 13 2 4-2 3-3 6-4 9-2 3 1h11l2 4 6 1 3 3v3l11 1 12 5 2 1h31l22-2 13-4 14-2 12-5 10-2 18-1 7-2 12-2v-4l12-1 9-2 27-1 8-2 10-1h52l6 1 23 1 7 1 6-1 7 2h30l29 1h13l9 2 10-1h21l11-1 2 1h19l10 2v2h24l7 2 8 3 19 2 9 2 3 3 8 4 3 5h42l5-4 5-1v-4h-2l1-4 5-2 11-2 6-4 9-3 11-4 9-1v-3h2v-2l7-3h3l3 5 7 2 1 4v1l5-2v-7l-1-2 5-1-1-3 1-2-2-4 7 1 1-8 4-3 1 7 4 1v-6l-2-2 2-5h2v-2h2l-2-4 1-4 2-4h2v-2h2l1-2h2l1-2 4 4-2 7 2 2 2-4 1-4 5-4 3 1 1 3 5 1 2 6h2l-3-10-1-7 3 1 2 7 5 6 1 2 3-1 6 1 3-1 2-3 4 4 8 18 12 20 13 16 9 10 8 8 14 11 18 12 21 10 17 6 15 4 25 4h39l25-5 21-7 18-8 18-10 11-8 10-8 10-9 7-7 11-14 10-15 7-12 9-21 5-15h2l1-3h1v11l-3 6 1 5 1 3 4 1v4l-2 3v7l-2 5v5h-2v2l-3 2-1 3 4 2 5 2 2-2 1-2h4l-2 9 4 5v5h-2l1 7h2v2h2l1-2 5-1 4 7 2 2v3l6 1 4 1 6-2h10l1-2h3l2 3 22-1 9-4 4-3 13-3 10-4h17l4 1 3 5 8 3 5 2 22 3 5-1 4-5 4-1-2-6 1-1 13-1 2 1h4l1-2 5-1 3-5 4-1 3 1 5-1 6 1h4l2 5h12l7-3 4-2 1-2h6l1-4h2v-2h4l2-5 2-3 2-8 2-4h2v-3l6-5 1-8 2-3h2l3-12 8-11 2-4h2l2-6 3-1 1-5 10-1 1 4 10 3 3 2 4 24 2 16 1 1 2 28 3-1 1-288h1v855l-5-2-12-13-241-241-14-11-14-9-21-11-19-7-24-6-21-3h-27l-25 4-25 7-23 10-19 11-13 10-14 12-142 142-14 10-11 5-10 3h-18l-15-4-15-8-13-12-243-243-7-8-11-11-8-7-9-7v-2l-4-2-10-7-18-10-15-7-21-7-23-5-16-2h-27l-24 4-22 6-20 8-17 9-12 8-13 10-16 15-371 371h-2z" fill="#2762E6"/>
<path transform="translate(1827,425)" d="m0 0 4 1v2h2l2 5 1 6 3 12v8l6 8 4 9 1 25 2 18 2 10 1 48v240l-4-2-2-14-1-14-2-6-1-13-4-22-12-5-2-1-1-2-7 1-2 4-3 2-2 5h-2l-2 6-7 9-3 10-1 2h-2l-2 11-5 5h-2v3h-2l-3 12-5 8h-4v2h-2l-1 4h-6l-2 4-10 4h-12l-3-3h2l-2-3-7 1-4-1-4 1-3-1-3 2-5 5-4 1-5 1-5-1-9 1 1 6-5 3-5 5-12-1-16-3-6-3-5-2-4-4-5-1h-14l-7 3-18 5-5 4-9 2-19 1-2-4h-3l-1 3h-10l-9 2-3-2-5-1-1-3-1-1-3-7-4-1-1 2-3 1v-2h-2l-2-5 1-2h2l-2-7-3-3 1-6 2-3-3 2-5 3-8-5 1-4 3-1 2-11 1-3v-6h2l1-5-4-2v-2l-2-1-1-6 3-5v-10l-1 2h-2l-2 9-6 16-8 16-9 15-9 12-11 13-11 11-14 11-15 10-21 11-21 8-19 5-16 3h-39l-25-4-15-4-17-6-17-8-20-12-8-7-11-9-13-13-11-14-6-8-11-19-7-16v-2h-4l-1 3h-7l-7-2-6-8-1-6-2-1 3 12 2 5-2 2-3-3v-5h-5l-2-4-4 2-3 1v6l-4 3-2-4 2-6-3-3-3 1-1 3-2-1v2h-2l-2 8 1 4h-2v2h-2l-1 5 2 2-1 6-4-1-2-6-2 2-2 8h-6l2 4-1 4h-2l-1 2v3 5l-6 3h-2l-1 2 1-4h2l-1-4h-6l-4-4v-3l-10 3v2h-2v3l-11 3-14 5-8 3-5 3-8 1-5 2-1 3h2v4l-8 4-2 2h-42l-4-6-8-4-2-2-9-2-19-2-8-3-7-2-24-1v-2l-16-1h-13l-6-1-14 1h-18l-7 1-8-2h-23l-28-1h-22l-7-2-7 1-5-1-26-1-3-1h-52l-12 1-6 2-27 1-9 2h-12v4l3 1-19 3-3 1-18 1-13 3-9 4-18 3-9 3-22 2h-31l-13-5-6-2-6-1-3-5-7-2-2-3h-10l-6-1-9 4-5 2-1 3-6 2-11-2-9 4-10-3-1-4-10-3-7-5-7-7-9-8v-4l-5-4-4-8v-2l-5-2-8-6-2-4-3-2v-2h-2l-4-9-1-4-4 1-3 25h-1l-3 18 1 3-1 7v23l-1 32v33l-1 16 1 4v8l-1 2v49l-1 3 1 2-1 4v18l-1 19-2-3v-373h1l1-45 1-3-1-5h2l-1-4v-10l1-7 1-38 1-7 1-15 2-27 3-17 1-2 3 1 3 10 2 4 3-1 2 2v3h2l4 10 2 2 1 8 1 3 8 2 3 1 2 5v4l3-1 3 5 4 3-1 4 5-1 1 3h2v4l3-4 5 2v3l3 1-1 3-4 1v4l4 2v-3l4-1 6 3 7 1 1-2 3-2v2l14-1 6-2 6-8 10-4 7 1 6 4 9 1 8 4 2 3 11 4 5 3 4 6 9 3 17-1 23-2h32l19 3 20 3-1 2 8 2h350l5-2v-2l9-1 21-1 7-1h29l6 1h21l9-4 9-2 4-2 5-5 8-3 10-7 3-1 2-4 3-2h4l2-5 13-7 6-1v-2l10-4h2v-2l4-2 11-3 12-2 4 1 2-1 7 2 3 3 5 1 1 5-1 3 3-1v4h8l2 2 11-1 5-2 9-3 18-9 15-3 7 2 1-2 6 1 5-2 17-3 9-2 7-1 9-6 6-5 12-2 14-7 9-2 1-1 10-2 13-4 17-3h28v-6h8l2 1 9 1 5 2 6-1 5 1 8-1 4 4 13 1 3 2-1 7-1 3 8 2v2l4 1 4 2 9 6 1 2 9 2 1 3 8 1 5 4 4 1v2h5 1l1-3 4-1 3 6h4l1 2 7-1 1-2 4-1v2l3 1 1 2v-3h2v2l4 1 7 2 4-1 7 3 1 4 7 1 1 2 9-1 5 2 2 2 2-2 4 1 9 1 9 2 2 1 7-2 6 4 5-3 3 2 6-1 6 2 7 1 8 2v2l9 3 7 3 6 2 20 8 5 5 4 2 14 2 17-3 4-3 2-5 13-4h3l2-4 5-4 3-5h11l6 1h9l5-2 15-1v-2l9-3h3l6-12 5-2 2-4 2-6 6-9h2l2-7 3-6h2v-2h2l1-3 6-2 2-6 7-6 1-11h5l-1-1-2-3v-7l1-2v-7l-3-7v-6z" fill="#3176F0"/>
<path transform="translate(1298,512)" d="m0 0h23l21 2 15 3 17 5 19 8 21 11 11 8 9 7 13 12 10 10 11 14 9 14 11 21 7 18 5 22 3 19v37l-4 25-6 19-7 17-8 16-12 18-9 11-9 10-8 8-14 11-15 10-21 11-21 8-19 5-16 3h-39l-25-4-15-4-17-6-17-8-20-12-8-7-11-9-13-13-11-14-6-8-11-19-9-21-5-15-5-25-1-8v-39l3-18 6-22 10-24 10-18 10-14 12-14 13-13 14-11 15-10 10-6 17-8 26-8 21-4z" fill="#FECB07"/>
<path transform="translate(1855,526)" d="m0 0h1v855l-5-2-12-13-241-241-14-11-14-9-21-11-19-7-24-6-21-3h-27l-25 4-25 7-23 10-19 11-13 10-14 12-142 142-14 10-11 5-10 3h-18l-15-4-15-8-13-12-18-18-3-5-71-71v-2l-4-2-4-4v-2l-4-2v-2l-4-2v-2l-4-2v-2l-4-2v-2l-4-2v-2l-4-2v-2l-4-2v-2l-4-2v-2l-4-2v-2l-4-2v-2l-4-2-1-3 3-1h1l-1-2 5 2 5 4 4 2 9 8h3l-3-3v-3h-2l-4-7-2-6-4-7-6-10 1-4 7 1 3-1 12 3 5 2 6 3v2h3l1-3h-2v-3l5 1-1 5 14 1h7l7-3 2-1 9 3v2l9 1 9 4 11 1 5-1h11l9-1 3-1 6 1 14 1 14 2h17l1-2 4-2 21-1 15-4 13-1 10-4 12 1v2l3 2 1 1 8-1 4-2 6-1 3-2 10-1 5-2h12l6-2h9l5-4 9-2 4-2h8l6-3 6 1v3l12-3 10-1 4-1v-2l8-1 8 1 2 1 20-4 6-1h3l7-1 5 1 7-3h11l13-1 3-1 20-1 10 1 3 2 16 2 4 1 2-1 9 2 1 1h5v2l4-1 8 2h3l5 1v2h2l1-2 2 2h3l5 1 8 4 7 2v2l6 2 3 2v2l3-1 3 2v3l4-1 4 3 4 6 4-2-1-4-5-5v-2l-3-1 1-3 3-1 5 2 3-3-2-6 7 2 5 5 6 3h6l5 3v2l10 3 16-1 5-1h1l1-4h7l5 1h3l3 2 1-2 6 3 4-1 3 4 11-2 4 2 5-1 3 1h9l2-1h7l5-1 3 1 6-1 5 2 4-3 16 1 4 2-1-3 1-4 9-4 3-3 1-6h6l2-5 3-9 5-7 6-2v-7l1-2 6 1-1-3-2 1-2-1 1-6 5-5 7-2 2 2v3l4-4 1-4 5 1v10l-1 5 4 3 2 8v7l3 21 3 43 2 9z" fill="#2651D2"/>
<path transform="translate(192,510)" d="m0 0h1l1 515v253l1-4 1-14v-14l1-41v-13l1-4 1-24 1-13v-10l1-10 1-18 1-4v-8l1-6v-9l1-10 2-5 3-1 2 1 1-6 3-1v3h8l-1 5-1 2h-2v5h4l4 2v3h4l1-6 6 1v2l6 1 3 2v2l6-1 1 4-1 4 9 1 9 5 9 1 12-1 9-3 3-2 14-2 12-3-3-2v-3l6-1h14l5-2h11l5 3h7l4-1h7l4-1 7-1v-2l16-6 16-8 4-1 5-5 5-2 8-6h2l2-5 2-2 7-2 4 2 5-1 1-2 4-1 1 3 8-7 4-1 6 1 1 4v3l4-1 1-3h3l1 3 5-2 2 1 1-4 8-4 8-8h2l2-4h2v-2h2v-2l4-3h2l2-4h2l1-3 6-5h2v-3l6-2v-2l7-6 2-2 5-1 1-5 3 1v-3l10-6 14-7 5-3 11-4 18-4 4-1 5-1-1 3-12 4-5 2h-3v2l-4 1v2l-19 10-12 8-13 10-16 15-371 371h-2z" fill="#2651D2"/>
<path transform="translate(1464,614)" d="m0 0 4 3-1-3 3 1 5 8 3 4 2 3 2-1 2 2 1-8 3 4 7 18 5 22 3 19v37l-4 25-6 19-7 17-8 16-12 18-9 11-9 10-8 8-14 11-15 10-21 11-21 8-19 5-16 3h-39l-25-4-15-4-17-6-13-6 3-1 5-1-2-3v-4l-4-2v-2h-2l-2-5 1-5 10-12 4-2 4 1 6-7 7-9 5-2 4-4h2v-2h2v-2h2l1-3h4v-2h2l1-4h3l1-2 4-5v-2l5-5 2-3 1-2 2-1 2-5 6-8 12-12 8-7 5-6 8-7 3-1v-2l11-9 4-2 1-3 7-6 6-7 4-5 7-3 8-8 4-7 10-5 3-6 4-1 3-5 5-1 4-3 3-1v-7l6-2 2-5 8-3 10-7 4-6h2l1-6 6-7z" fill="#FBAF0E"/>
<path transform="translate(1407,542)" d="m0 0 4 3 7-1 14 10 16 15 9 9 11 14 9 14 8 15v10h-3l-4-1-3-6-3-3-3-6v3l-4-2-2 6-5 6-2 6-9 9-8 6-7 2-2 5-5 1v7l-11 6-3 1-2 4h-4l-2 6-11 6-5 8-3 3h-2l-2 4-8 4-5 7-4 4h-2l-2 4-9 8-8 7h-2v2l-8 7-6 5-7 8-10 9-4 4-6 8-2 5-1 2-2 1-6 8h-2l1 3h-2l-2 5-4 3h-2v2h-2v2l-4 1-1 2h-2v2h-2v2l-7 6h-4l-2 4-2 3h-2l-2 5-6 5-4-1-5 5-7 8-1 5 1 5h2l5 6 2 5-6 2-7-2-20-12-8-7-11-9-13-13-11-14-6-8-6-11 5-1 1-2 3 1 5 5 4 2-1-8h2l-1-6h7l5 2h5l2-8 3-2 3-7 2-1 2-4 3-4 9-4 5-1 5-2h3v-3l9-6h2l2-4 3-1 6-9-5-2-2-1 7-11 3-1 1-2 5-6 6-4 5-3 7-2 5-3 7-5h2v-2h3l1-4h3l1-4h2l2-5h2l1-7v-9h2l1-5 3-1 1-3h3v-4h4l1-3 5-4h2v-2l8-7 8-5 3-4h2l2-4 2-5 1-1v-6l4-4 5-2h5v-2l8-2 13-4h9l5-4 3-1 4-5 6-1 1-12 1-4-3-5 1-5 1-4 2-1-3-5-3-2 1-4z" fill="#FEC00A"/>
<path transform="translate(1506,192)" d="m0 0h41l28 2 26 4 28 7 26 9 6 3 1 5h-5l-6-2-40-13-9-3-7-2-4-1-7 1-6-1-33-1-23-1-12 1-57 2-51 1-20 1-5 1-370 1h-213l-121-1-3-1-40-2-47-1-39-1-23-1-9-1-3-3 7-1 76-1z" fill="#4799F3"/>
<path transform="translate(1229,532)" d="m0 0 9 3 7 1 6 5 2 3 12 2 1 5 2 1v4 2l3-3v-3l3-1 2 1h7l2 4-1 2h-4l-1 5-5 4-5 5-4 2v2l-5 2h-4l-2 4-4 2-3 1v2l-6 4-4 2v2l-8 4-2 2-6 1-1 3-12 6h-2v2l-8 6h-3v2h-2v3l-4 1-2 4-5 7-3 1-3-5-5-1v-3l5-5 2-7 5-2 1-5 4-5 3-3 1-9-6-1-2 1-4-2v5l-5 3-6 5-12 20-4 5-2 7-4 6-2 6-4 6-3 9-2-1-7 3-2 11h-3l1-15 6-20 11-25 8-14 10-14 12-14 13-13 14-11 15-10 10-6z" fill="#FED607"/>
<path transform="translate(1687,232)" d="m0 0 7 1 18 11 18 13 13 11 5 5-2 2-7-4-1-3h-4v-2l-4-2v-3l-6-1-27-18-2-1-3-3-8-3v-2z" fill="#4699F3"/>
<path transform="translate(951,1117)" d="m0 0 7 1-1 2 6 7 6 5 6 7 6 5 6 7 6 5 6 7 5 5 5 4 7 8 67 67-1 2-131-131z" fill="#4495F3"/>
<path transform="translate(458,196)" d="m0 0h6v3l-8 3-9 3h-10v2l-6 1-1 1-4 1-5-1-1 2h-7l-1-4 22-6z" fill="#4698F3"/>
<path transform="translate(1456,1075)" d="m0 0h30l26 4 7 2v2l-9-1-25-4h-27l-20 3h-5l3-2 19-3z" fill="#3881EF"/>
<path transform="translate(951,1117)" d="m0 0 7 1-1 2 6 7 6 5 6 7 6 5 6 7 6 5 6 7 5 5 5 4 4 6-4-2-58-58z" fill="#3D8AF1"/>
<path transform="translate(1506,192)" d="m0 0h32l5 1-1 2h-46l-15-1v-1z" fill="#3D86F0"/>
<path transform="translate(1491,634)" d="m0 0 2 1 2 7 2 1 1 7 1 6 2-1v9l1 2 2 16v41h-1l-1-37-4-25-5-18z" fill="#4597F3"/>
<path transform="translate(1754,278)" d="m0 0 7 6 5 6-3 2-4-2v-2l-4-2-3-4v-3z" fill="#479AF4"/>
<path transform="translate(1336,514)" d="m0 0 13 1 11 3v1l-7 1v1h-10l-2-5-5-1z" fill="#FDBA0B"/>
<path transform="translate(1601,1108)" d="m0 0 5 2 11 13-1 2-5-4h-5l-4-6 3-2z" fill="#2660E3"/>
<path transform="translate(1485,1077)" d="m0 0h16l18 4v2l-9-1-25-4z" fill="#357CEE"/>
<path transform="translate(1248,721)" d="m0 0h6l-3 5h-2l-2 4h-2l-1 2-2-4 3-5z" fill="#FFCB07"/>
<path transform="translate(1457,583)" d="m0 0 5 1 6 8-1 2-6-2-3-2z" fill="#FBAF0F"/>
<path transform="translate(260,1733)" d="m0 0 7 6 9 10 6 8-1 2-10-11-9-11z" fill="#479AF4"/>
<path transform="translate(1432,554)" d="m0 0 5 2 3 3 6 5 6 7 2 1-1 3-14-14-7-6z" fill="#4595F2"/>
<path transform="translate(1407,537)" d="m0 0 7 2 5 4 3 1 1 2 5 3 4 3-1 2-16-11-8-5z" fill="#4494F2"/>
<path transform="translate(642,957)" d="m0 0h7l-3 2-16 6-5 1 4-2v-2z" fill="#357BED"/>
<path transform="translate(1519,1083)" d="m0 0h8l7 2v2h5v2l2 1-5-1-17-5z" fill="#347AED"/>
<path transform="translate(1166,805)" d="m0 0 2 1v4l2 1-1 3-5-1-1-7z" fill="#FFCC07"/>
<path transform="translate(210,1060)" d="m0 0h4l-1 4-6 2-1-4z" fill="#2651D2"/>
<path transform="translate(1482,615)" d="m0 0 3 1 2 6 2 4 1 6-2-2-6-13z" fill="#4596F3"/>
</svg>
