<?xml version="1.0" encoding="UTF-8"?>
<svg version="1.1" viewBox="0 0 2048 2048" width="1280" height="1280" xmlns="http://www.w3.org/2000/svg">
<path transform="translate(1009,96)" d="m0 0h29l26 3 25 6 20 7 25 12 19 12 14 11 12 11 14 14 11 14 9 13 11 19 10 23 6 19 4 17 3 19 1 16v13l-2 27-5 24-6 20-8 19-11 21-12 18 389 389 4-1 11-8 18-10 19-9 21-7 22-5 13-2 12-1h30l25 3 25 6 20 7 25 12 19 12 14 11 12 11 14 14 11 14 12 18 8 14 10 23 6 19 5 22 2 14 1 16v12l-1 19-4 25-7 25-8 20-12 23-10 15-13 16-9 10-10 10-14 11-11 8-20 12-19 9-27 9-18 4-21 3-26 1-25-2-25-5-17-5-20-8-23-12-13-9h-4l-2 4-13 13-7 8-13 13-7 8-13 13-1 2h-2l-2 4-21 21-7 8-13 13-7 8-15 15-7 8-13 13-7 8-17 17-1 2h-2l-2 4-15 15-1 2h-2l-2 4-16 16-1 2h-2l-2 4-16 16-7 8-17 17-7 8-15 15-7 8-13 13-7 8-13 13-1 2h-2l-2 4-18 18-2 3h-2l-2 4-17 17-7 8-12 12-1 3 10 17 10 23 7 22 5 25 2 23v14l-2 26-5 25-6 20-8 19-11 21-10 15-11 14-12 13-9 9-14 11-11 8-20 12-19 9-27 9-18 4-21 3-25 1-26-2-25-5-17-5-20-8-23-12-12-8-12-9-10-9-8-7-8-8-9-11-10-13-13-21-9-19-7-19-6-24-3-19-1-10v-30l2-20v-7l-294-147-5-3-2 4-10 13-11 12-11 11-14 11-13 9-15 9-21 10-17 6-22 6-26 4-15 1h-12l-25-2-25-5-20-6-19-8-21-11-15-10-14-11-15-14-13-14-12-16-13-21-9-19-7-19-6-24-3-19-1-10v-31l3-23 4-18 6-20 9-21 9-17 12-18 9-11 9-10 6-7 8-7 12-10 17-12 19-11 21-9 18-6 22-5 13-2 12-1h31l25 3 24 6 23 8 6 1 11-17 15-23 7-11 26-40 15-23 16-25 17-26 13-20 5-8-2-5-14-24-9-15-19-32-13-22-19-32-9-15-19-32-16-27-10-17-2-4-5 1-19 6-21 5-21 3-15 1h-12l-25-2-25-5-20-6-19-8-21-11-15-10-14-11-16-15-12-13-12-16-13-21-9-19-7-19-6-24-3-19-1-10v-31l3-23 4-18 6-20 9-21 9-17 12-18 9-11 9-10 6-7 8-7 12-10 17-12 19-11 21-9 18-6 22-5 13-2 12-1h31l24 3 25 6 20 7 25 12 14 9 11 8 10 8 10 9 13 13 9 11 12 17 8 14 6-1 52-19 228-83-1-12-2-20v-30l3-23 4-18 6-20 9-21 9-17 12-18 9-11 9-10 6-7 8-7 12-10 17-12 19-11 21-9 18-6 22-5 13-2zm-186 331-55 20-61 22-41 15-44 16-58 21-24 9 1 14 2 26v13l-2 26-5 24-4 13 4 3 178 89 5-5 9-14 17-26 13-20 15-23 7-11 13-20 11-17 26-40 22-34 15-23 7-11 2-2-1-5-17-17-9-11-11-15-10-16zm333 73-10 7-19 11-17 8-27 9-18 4-21 3-16 1h-11l-25-2-25-5-30-10-4-2h-4l-5 9-11 17-13 20-16 25-10 15-12 19-10 15-14 22-18 27-10 16-15 23-14 22-7 10-1 3 23 12 42 21 4-2 9-12 12-14 8-8 11-9 13-10 19-12 15-8 23-9 17-5 27-5 12-1h30l26 3 25 6 22 8 23 11 17 11 16 12 13 12 12 12 11 14 12 18 8 14 10 23 6 19 5 23 2 14 2 20 1 1 96 13 160 22h8l9-24 11-23 10-16 5-6-1-4-388-388zm-653 204-10 13-12 14-11 11-9 7 2 5 13 22 19 32 16 27 12 20 13 22 19 32 9 15 11 18 2 5 4-1 11-17 26-40 15-23 12-19 10-15 14-22 10-15v-4l-172-86zm234 117-10 16-13 20-22 34-30 46-14 22-10 15-14 22-8 12 1 5 16 27 17 29 9 15 16 27 12 20 29 49 15 25 10 17 13 22 9 15 35 59 15 25 17 29 21 35 29 49 12 20 19 32 11 19 5-1 25-10 22-6 16-3 2-2v-355l-6-2-22-5-24-8-25-12-18-11-13-10-10-9-8-7-7-7-9-11-10-13-11-18-8-15-10-26-6-24-3-19-1-10v-32l3-23 5-22 2-8-8-5-64-32zm502 168-9 25-12 25-9 14-12 16-11 13-12 12-14 11-14 10-21 12-18 8-24 8-25 6-2 1v356l13 3 23 6 22 8 20 10 17 11 16 12 2 2h4l7-8 15-15 7-8 12-12 7-8 17-17 7-8 16-16 7-8 15-15 7-8 12-12 7-8 13-13v-2l3-1 7-8 17-17 7-8 12-12 7-8 13-13v-2h2l7-8 13-13 7-8 17-17v-2h2l7-8 13-13 7-8 11-11 7-8 16-16 7-8 17-17 7-8 11-11 7-8 5-4-1-4-9-13-9-15-8-16-8-20-7-26-3-19-2-25-10-2-124-17-123-17zm-663 81-10 15-14 22-30 46-16 25-18 27-10 16-10 15v4l20 20 11 14 9 13 12 21 9 21 7 22 5 25 2 22v18l-2 25-5 24-4 12v2l16 8 21 11 21 10 19 10 21 10 19 10 174 87 3-1 9-16 12-17 9-11 11-12 3-3-2-6-16-27-9-15-19-32-13-22-19-32-9-15-38-64-15-25-17-29-15-25-35-59-35-59-9-15-19-32-16-27-6-10z" fill="#F49489"/>
<path transform="translate(1549,1163)" d="m0 0 4 1 11 11 7 8 14 13 10 8 1 3-7 8-9 9-7 8-13 13-7 8-13 13-1 2h-2l-2 4-21 21-7 8-13 13-7 8-15 15-7 8-13 13-7 8-17 17-1 2h-2l-2 4-15 15-1 2h-2l-2 4-16 16-1 2h-2l-2 4-16 16-7 8-17 17-7 8-15 15-7 8-13 13-7 8-13 13-1 2h-2l-2 4-18 18-2 3h-2l-2 4-17 17-7 8-12 12-1 3 10 17 10 23 7 22 5 25 2 23v14l-2 26-5 25-6 20-8 19-11 21-10 15-11 14-12 13-9 9-14 11-11 8-20 12-19 9-27 9-18 4-21 3-25 1-26-2-25-5-17-5-20-8-23-12-12-8-12-9-10-9-8-7-8-8-9-11-10-13-13-21-9-19-7-19-6-24-3-19-1-10v-30l2-20v-7l-294-147-5-3-2 4-10 13-11 12-11 11-14 11-13 9-15 9-21 10-17 6-22 6-26 4-15 1h-12l-25-2-25-5-20-6-19-8-21-11-15-10-14-11-15-14-13-14-12-16-13-21-9-19-7-19-6-24-3-19-1-10v-31l3-23 4-18 6-20 9-21 9-17 12-18 9-11 9-10 6-7 8-7 12-10 17-12 19-11 21-9 18-6 22-5 13-2 12-1h31l25 3 24 6 23 8 7 1 4 4 20 12 15 10 11 8 24 24 11 14 9 13 12 21 9 21 7 22 5 25 2 22v18l-2 25-5 24-4 12-1 2 6 2 29 15 256 128h2l9-16 12-17 9-11 11-12 3-3v-3l7-4 13-10 21-14 11-7 6-2 25-10 22-6 16-3 2-2h64v2l13 2 23 6 22 8 20 10 17 11 16 12 2 2 4 1 2-4 19-19 7-8 12-12 7-8 17-17 7-8 16-16 7-8 15-15 7-8 12-12 7-8 13-13 7-8 20-20 7-8 12-12 7-8 13-13 1-2h2l2-4 17-17 7-8 17-17 1-2h2l2-4 17-17 7-8 11-11 7-8 16-16 7-8 17-17 7-8 11-11 7-8z" fill="#92CBD7"/>
<path transform="translate(876,491)" d="m0 0 5 2 10 7 6 4 11 7 21 12-1 5-12 19-15 23-16 25-10 15-12 19-10 15-14 22-18 27-10 16-15 23-14 22-7 10-2 3 6 2 29 15 30 15 3-1 9-12 12-14 9-9 11-9 13-10 19-12 15-8 23-9 17-5 27-5 12-1h30l26 3 25 6 22 8 23 11 17 11 16 12 13 12 13 13 11 14 12 18 8 14 10 23 6 19 5 23 2 14 2 20 96 13 160 22 6 2-1 11-4 26-2 25h-10l-124-17-101-14-30-4-3 11-8 21-11 21-7 11-12 16-11 13-13 13-14 11-14 10-21 12-18 8-24 8-25 6h-2v354l-1 1-63-1-1-354-23-5-17-5-20-8-23-12-15-10-14-11-16-15-12-13-12-16-11-18-8-15-10-26-6-24-3-19-1-10v-32l3-23 5-22 2-8-19-10-52-26h-2l-7 12-15 23-22 34-30 46-14 22-10 15-14 22-8 12 1 5 16 27 17 29 9 15 16 27 12 20 29 49 15 25 10 17 13 22 9 15 35 59 15 25 17 29 21 35 29 49 12 20 19 32 10 17-2 4-18 11-18 13-12 9-4-1-17-29-9-15-19-32-13-22-19-32-9-15-38-64-15-25-17-29-15-25-35-59-35-59-9-15-19-32-16-27-6-10-4 5-13 20-22 34-15 23-16 25-18 27-10 16-10 15-4 1-14-10-17-11-15-9-4-3 1-5 16-25 10-15 7-11 11-17 13-20 15-23 16-25 17-26 13-20 5-8-2-5-14-24-9-15-19-32-13-22-19-32-9-15-19-32-16-27-10-17-1-5 24-14 16-10 12-8 3 1 14 24 19 32 16 27 12 20 13 22 19 32 9 15 11 18 1 5 3-1 11-17 26-40 15-23 12-19 10-15 14-22 10-15 1-3-172-86-2-4 12-21 12-24 4-9 6 1 19 10 156 78 5-5 8-13 17-26 13-20 15-23 7-11 13-20 11-17 26-40 22-34 15-23 7-11z" fill="#E96972"/>
<path transform="translate(305,1184)" d="m0 0h31l25 3 24 6 23 8 7 1 4 4 20 12 15 10 11 8 24 24 11 14 9 13 12 21 9 21 7 22 5 25 2 22v18l-2 25-5 24-4 12-1 2 6 2 29 15 256 128-1 7-8 20-9 28-2 6-5-1-290-145-5-3-2 4-10 13-11 12-11 11-14 11-13 9-15 9-21 10-17 6-22 6-26 4-15 1h-12l-25-2-25-5-20-6-19-8-21-11-15-10-14-11-15-14-13-14-12-16-13-21-9-19-7-19-6-24-3-19-1-10v-31l3-23 4-18 6-20 9-21 9-17 12-18 9-11 9-10 6-7 8-7 12-10 17-12 19-11 21-9 18-6 22-5 13-2z" fill="#4E9CB9"/>
<path transform="translate(305,352)" d="m0 0h31l24 3 25 6 20 7 25 12 14 9 11 8 10 8 10 9 13 13 9 11 12 17 8 14 2 1 8 19 8 22 5 18 3 24 1 17v13l-2 26-5 24-4 13 1 2-4 9-15 30-10 17h-2l-2 4-11 14-12 13-8 8-8 6-5 5-15 10-15 9-16 9-4 2-5 1-19 6-21 5-21 3-15 1h-12l-25-2-25-5-20-6-19-8-21-11-15-10-14-11-16-15-12-13-12-16-13-21-9-19-7-19-6-24-3-19-1-10v-31l3-23 4-18 6-20 9-21 9-17 12-18 9-11 9-10 6-7 8-7 12-10 17-12 19-11 21-9 18-6 22-5 13-2z" fill="#92CBD7"/>
<path transform="translate(1713,800)" d="m0 0h30l25 3 25 6 20 7 25 12 19 12 14 11 12 11 14 14 11 14 12 18 8 14 10 23 6 19 5 22 2 14 1 16v12l-1 19-4 25-7 25-8 20-12 23-10 15-13 16-9 10-10 10-14 11-11 8-20 12-19 9-27 9-18 4-21 3-26 1-25-2-25-5-17-5-20-8-23-12-13-9h-3l-4-5-10-8-13-12-15-16-3-3-4-7-7-10-9-15-8-16-8-20-7-26-3-19-1-10v-15l-2-1h2v-15l4-30 2-11v-7h3l1-5 7-19 11-23 10-16 5-6v-4l8-7 9-11 15-14 9-8 5-4 5-3 15-10 25-13 24-9 26-6 13-2z" fill="#FDCC89"/>
<path transform="translate(876,491)" d="m0 0 5 2 10 7 6 4 11 7 21 12-1 5-12 19-15 23-16 25-10 15-12 19-10 15-14 22-18 27-10 16-15 23-14 22-7 10-2 3 6 2 29 15 30 15-1 5-8 15-8 16-9 20-5 1-68-34h-2l-7 12-15 23-22 34-30 46-14 22-10 15-14 22-8 12 1 5 16 27 17 29 9 15 16 27 12 20 29 49 15 25 10 17 13 22 9 15 35 59 15 25 17 29 21 35 29 49 12 20 19 32 10 17-2 4-18 11-18 13-12 9-4-1-17-29-9-15-19-32-13-22-19-32-9-15-38-64-15-25-17-29-15-25-35-59-35-59-9-15-19-32-16-27-6-10-4 5-13 20-22 34-15 23-16 25-18 27-10 16-10 15-4 1-14-10-17-11-15-9-4-3 1-5 16-25 10-15 7-11 11-17 13-20 15-23 16-25 17-26 13-20 5-8-2-5-14-24-9-15-19-32-13-22-19-32-9-15-19-32-16-27-10-17-1-5 24-14 16-10 12-8 3 1 14 24 19 32 16 27 12 20 13 22 19 32 9 15 11 18 1 5 3-1 11-17 26-40 15-23 12-19 10-15 14-22 10-15 1-3-172-86-2-4 12-21 12-24 4-9 6 1 19 10 156 78 5-5 8-13 17-26 13-20 15-23 7-11 13-20 11-17 26-40 22-34 15-23 7-11z" fill="#675F7A"/>
<path transform="translate(1203,455)" d="m0 0 4 2 386 386-2 4-10 8-11 11-6 5-9 11-6 6-4-1-386-386 2-4 13-12 8-7 16-17z" fill="#67607B"/>
<path transform="translate(1549,1163)" d="m0 0 4 1 11 11 7 8 14 13 10 8 1 3-7 8-9 9-7 8-13 13-7 8-13 13-1 2h-2l-2 4-21 21-7 8-13 13-7 8-15 15-7 8-13 13-7 8-17 17-1 2h-2l-2 4-15 15-1 2h-2l-2 4-16 16-1 2h-2l-2 4-16 16-7 8-17 17-7 8-15 15-7 8-13 13-7 8-13 13-1 2h-2l-2 4-18 18-2 3h-2l-2 4-17 17-7 8-13 13-5-5-13-17-9-10-12-13-3-4 7-8 15-15 7-8 12-12 7-8 17-17 7-8 16-16 7-8 15-15 7-8 12-12 7-8 13-13 7-8 20-20 7-8 12-12 7-8 13-13 1-2h2l2-4 17-17 7-8 17-17 1-2h2l2-4 17-17 7-8 11-11 7-8 16-16 7-8 17-17 7-8 11-11 7-8z" fill="#675F7A"/>
<path transform="translate(992,1152)" d="m0 0h64v352l-1 1-63-1z" fill="#675F7A"/>
<path transform="translate(533,1480)" d="m0 0 5 1 29 15 256 128-1 7-8 20-9 28-2 6-5-1-290-145-3-2 2-6 9-16 11-22 5-11z" fill="#675F7A"/>
<path transform="translate(801,367)" d="m0 0h3l13 38 9 19v3l-64 23-57 21-64 23-30 11-69 25-3-1-8-27-8-20-4-9 1-4 253-92z" fill="#675F7A"/>
<path transform="translate(1248,926)" d="m0 0h9l154 21 94 13 6 2-1 11-4 26-2 25h-10l-124-17-101-14-27-4-2-1 1-9 4-27 2-24z" fill="#675F7A"/>
<path transform="translate(1e3 540)" d="m0 0h34l12 1-4 2-16 1h-11l-16-1-3-2z" fill="#EB7075"/>
<path transform="translate(1582,853)" d="m0 0v3l-25 25v-3l11-12 8-7z" fill="#F7A989"/>
</svg>
