<svg width="50" height="50" xmlns="http://www.w3.org/2000/svg" xmlns:undefined="http://www.serif.com/" clip-rule="evenodd" xml:space="preserve" version="1.1">

 <g>
  <title>Layer 1</title>
  <g id="svg_1" transform="matrix(0.235092 0 0 0.214885 84.7867 443.64)">
   <g transform="matrix(1 0 0 1 -113.385 -113.385)" id="Three.js_Icon.svg">
    <g id="svg_2" transform="matrix(1 0 0 1 8.964 4.2527)">
     <path id="svg_3" stroke-width="4px" stroke="black" fill="none" d="m-192.19958,-1753.92235l-43.213,-174.94l173.23,49.874l-130.017,125.066z"/>
     <path id="svg_4" stroke-width="4px" stroke="black" fill="none" d="m-148.82958,-1903.92035l21.591,87.496l-86.567,-24.945l64.976,-62.551z"/>
     <path id="svg_5" stroke-width="4px" stroke="black" fill="none" d="m-170.30958,-1829.50235l-10.724,-43.465l43.008,12.346l-32.284,31.119z"/>
     <path id="svg_6" stroke-width="4px" stroke="black" fill="none" d="m-191.76158,-1916.37935l10.724,43.465l-43.008,-12.346l32.284,-31.119z"/>
     <path id="svg_7" stroke-width="4px" stroke="black" fill="none" d="m-105.74958,-1891.60235l10.724,43.465l-43.008,-12.346l32.284,-31.119z"/>
     <path id="svg_8" stroke-width="4px" stroke="black" fill="none" d="m-170.30458,-1829.47235l10.724,43.465l-43.008,-12.346l32.284,-31.119z"/>
    </g>
   </g>
   <g  id="Three.js_Icon.svg1"/>
  </g>
 </g>
</svg>