<svg xmlns="http://www.w3.org/2000/svg" version="1.1" xmlns:xlink="http://www.w3.org/1999/xlink" xmlns:svgjs="http://svgjs.com/svgjs" width="800px" height="800px"><svg version="1.0" xmlns="http://www.w3.org/2000/svg" xmlns:xlink="http://www.w3.org/1999/xlink" width="800px" height="800px" viewBox="0 0 24 24" xml:space="preserve" fill="#000000">

<g id="SvgjsG1035" stroke-width="0"></g>

<g id="SvgjsG1034" stroke-linecap="round" stroke-linejoin="round"></g>

<g id="SvgjsG1033"> <g id="SvgjsG1032"> <g id="SvgjsG1031"> </g> <g id="SvgjsG1030"> </g> <g id="SvgjsG1029"> </g> <g id="SvgjsG1028"> </g> <g id="SvgjsG1027"> <g id="SvgjsG1026"> </g> <g id="SvgjsG1025"> <g id="SvgjsG1024"> <g id="SvgjsG1023"> </g> <g id="SvgjsG1022"> </g> <g id="SvgjsG1021"> </g> <g id="SvgjsG1020"> </g> <g id="SvgjsG1019"> </g> </g> </g> </g> <g id="SvgjsG1018"> </g> <g id="SvgjsG1017"> </g> <g id="SvgjsG1016"> <g id="SvgjsG1015"> </g> </g> <g id="SvgjsG1014"> <g id="SvgjsG1013"> <g id="SvgjsG1012"> <g id="SvgjsG1011"> </g> <g id="SvgjsG1010"> <g id="SvgjsG1009"> </g> <g id="SvgjsG1008"> <g id="SvgjsG1007"> </g> <g id="SvgjsG1006"> </g> </g> </g> </g> </g> </g> <g id="SvgjsG1005"> </g> <g id="SvgjsG1004"> </g> <g id="SvgjsG1003"> <g id="SvgjsG1002"> </g> </g> </g> <g id="SvgjsG1001"> </g> <g id="SvgjsG1000"> <g> <polygon style="fill:none;stroke:#00ffd5;stroke-linejoin:round;stroke-miterlimit:10;" points="10.5,6.5 9,7.5 7.5,6.5 7.5,5 9,4 10.5,5 "></polygon> <line style="fill:none;stroke:#00ffd5;stroke-linecap:round;stroke-linejoin:round;stroke-miterlimit:10;" x1="12" y1="0.5" x2="12" y2="1.5"></line> <polygon style="fill:none;stroke:#00ffd5;stroke-linecap:round;stroke-linejoin:round;stroke-miterlimit:10;" points="16,23.5 8,23.5 6.5,16 9,13.5 15,13.5 17.5,16 "></polygon> <line style="fill:none;stroke:#00ffd5;stroke-linecap:round;stroke-linejoin:round;stroke-miterlimit:10;" x1="12" y1="10.5" x2="12" y2="13.5"></line> <line style="fill:none;stroke:#00ffd5;stroke-linecap:round;stroke-linejoin:round;stroke-miterlimit:10;" x1="7.6" y1="21.5" x2="16.4" y2="21.5"></line> <polyline style="fill:none;stroke:#00ffd5;stroke-linecap:round;stroke-linejoin:round;stroke-miterlimit:10;" points="2.5,16 3,19 6.844,17.719 "></polyline> <polyline style="fill:none;stroke:#00ffd5;stroke-linecap:round;stroke-linejoin:round;stroke-miterlimit:10;" points="0.5,12 0.5,14 2.5,16 4.5,14 4.5,12 "></polyline> <polygon style="fill:none;stroke:#00ffd5;stroke-linecap:round;stroke-linejoin:round;stroke-miterlimit:10;" points="16,10.5 20.5,6 16,1.5 8,1.5 3.5,6 8,10.5 "></polygon> <polygon style="fill:none;stroke:#00ffd5;stroke-linejoin:round;stroke-miterlimit:10;" points="13.5,6.5 15,7.5 16.5,6.5 16.5,5 15,4 13.5,5 "></polygon> <polyline style="fill:none;stroke:#00ffd5;stroke-linecap:round;stroke-linejoin:round;stroke-miterlimit:10;" points="21.5,16 21,19 17.156,17.719 "></polyline> <polyline style="fill:none;stroke:#00ffd5;stroke-linecap:round;stroke-linejoin:round;stroke-miterlimit:10;" points="23.5,12 23.5,14 21.5,16 19.5,14 19.5,12 "></polyline> </g> </g> </g>

</svg><style>@media (prefers-color-scheme: light) { :root { filter: contrast(1) brightness(0.6); } }
</style></svg>